<?xml version="1.0" encoding="UTF-8"?>
<svg version="1.1" xmlns="http://www.w3.org/2000/svg" width="500" height="500">
<path d="M0 0 C165 0 330 0 500 0 C500 165 500 330 500 500 C335 500 170 500 0 500 C0 335 0 170 0 0 Z " fill="#5F94BD" transform="translate(0,0)"/>
<path d="M0 0 C46.2 0 92.4 0 140 0 C140 43.56 140 87.12 140 132 C93.8 132 47.6 132 0 132 C0 88.44 0 44.88 0 0 Z " fill="#6094BD" transform="translate(180,149)"/>
<path d="M0 0 C9.9 0 19.8 0 30 0 C30 10.14512472 30 10.14512472 29.265625 13.90234375 C29.10570068 14.72524902 28.94577637 15.5481543 28.78100586 16.39599609 C28.60577393 17.23469238 28.43054199 18.07338867 28.25 18.9375 C28.07025635 19.81486816 27.8905127 20.69223633 27.70532227 21.59619141 C26.4037599 27.69205903 24.76981098 33.39198765 22 39 C21.69707031 39.63421875 21.39414062 40.2684375 21.08203125 40.921875 C20.41206563 42.29326003 19.71086255 43.64936116 19 45 C18.34 45 17.68 45 17 45 C16.63841797 46.08087891 16.63841797 46.08087891 16.26953125 47.18359375 C14.82286717 50.39296237 13.06675137 52.47531406 10.6875 55.0625 C9.92824219 55.89910156 9.16898438 56.73570312 8.38671875 57.59765625 C6.04973192 59.9499425 3.625433 61.97942469 1 64 C-0.051875 64.86625 -0.051875 64.86625 -1.125 65.75 C-3 67 -3 67 -6 67 C-6 67.66 -6 68.32 -6 69 C-12.03431881 72.30179708 -17.83356906 73.72126925 -24.5625 74.8125 C-25.76676636 75.01613159 -25.76676636 75.01613159 -26.99536133 75.22387695 C-32.28900179 76.01930567 -36.71351091 75.75193276 -42 75 C-43.485 75.495 -43.485 75.495 -45 76 C-45.99 75.34 -46.98 74.68 -48 74 C-47.7525 72.4221875 -47.7525 72.4221875 -47.5 70.8125 C-46.81377831 65.83070874 -47.1892673 60.95505578 -47.55078125 55.953125 C-47 53 -47 53 -44.40625 50.640625 C-40.67252559 48.8422715 -38.30593689 48.53632579 -34.1875 48.5 C-28.26795053 48.25481156 -22.82243669 47.50682392 -17.0625 46.125 C-16.37760498 45.96322266 -15.69270996 45.80144531 -14.98706055 45.63476562 C-10.11310914 44.42026507 -5.76241569 42.78590588 -1 41 C-0.67 27.47 -0.34 13.94 0 0 Z " fill="#2B6594" transform="translate(235,157)"/>
<path d="M0 0 C0.97582031 0.11988281 1.95164062 0.23976562 2.95703125 0.36328125 C3.69308594 0.47027344 4.42914063 0.57726562 5.1875 0.6875 C6.18755304 3.68765912 6.30325585 5.66173756 6.28515625 8.79296875 C6.28032227 10.26733398 6.28032227 10.26733398 6.27539062 11.77148438 C6.26282227 13.30772461 6.26282227 13.30772461 6.25 14.875 C6.24548828 15.91076172 6.24097656 16.94652344 6.23632812 18.01367188 C6.2245401 20.57167266 6.20808515 23.12955733 6.1875 25.6875 C2.56279707 26.1896696 -1.0623089 26.68886777 -4.6875 27.1875 C-6.23630859 27.40212891 -6.23630859 27.40212891 -7.81640625 27.62109375 C-8.80253906 27.75644531 -9.78867187 27.89179688 -10.8046875 28.03125 C-11.71589355 28.15693359 -12.62709961 28.28261719 -13.56591797 28.41210938 C-15.8125 28.6875 -15.8125 28.6875 -17.8125 28.6875 C-19.15274875 29.08229497 -20.48233318 29.51372422 -21.8046875 29.96484375 C-22.59230469 30.23103516 -23.37992187 30.49722656 -24.19140625 30.77148438 C-25.01511719 31.05314453 -25.83882813 31.33480469 -26.6875 31.625 C-28.30942325 32.17717134 -29.93180463 32.72799922 -31.5546875 33.27734375 C-32.63532471 33.64653931 -32.63532471 33.64653931 -33.73779297 34.02319336 C-35.7373176 34.66342712 -37.77566323 35.17829081 -39.8125 35.6875 C-39.8125 48.8875 -39.8125 62.0875 -39.8125 75.6875 C-49.7125 75.6875 -59.6125 75.6875 -69.8125 75.6875 C-69.8125 52.97131788 -63.40169408 33.56301421 -47.40234375 17.2265625 C-38.82414927 9.04261151 -28.84949135 2.49976721 -16.75 2.75 C-15.24759766 2.82927734 -15.24759766 2.82927734 -13.71484375 2.91015625 C-10.73952126 2.90197316 -10.73952126 2.90197316 -8.3046875 1.1640625 C-5.18721312 -0.68296778 -3.54663008 -0.47003531 0 0 Z " fill="#3282B1" transform="translate(304.8125,197.3125)"/>
<path d="M0 0 C47.52 0 95.04 0 144 0 C144 44.88 144 89.76 144 136 C96.48 136 48.96 136 0 136 C0 91.12 0 46.24 0 0 Z M2 2 C2 45.56 2 89.12 2 134 C48.2 134 94.4 134 142 134 C142 90.44 142 46.88 142 2 C95.8 2 49.6 2 2 2 Z " fill="#123260" transform="translate(178,147)"/>
<path d="M0 0 C2.31 0 4.62 0 7 0 C7 12.87 7 25.74 7 39 C-2.57 39 -12.14 39 -22 39 C-22 32.83788329 -21.82785624 27.5593912 -20.6875 21.625 C-20.56955078 20.92761719 -20.45160156 20.23023438 -20.33007812 19.51171875 C-19.64166526 15.83312285 -19.10235433 13.27679785 -16 11 C-15.34 11.33 -14.68 11.66 -14 12 C-14 12.66 -14 13.32 -14 14 C-13.34 14 -12.68 14 -12 14 C-12 13.34 -12 12.68 -12 12 C-11.34 12 -10.68 12 -10 12 C-9.7525 11.4225 -9.505 10.845 -9.25 10.25 C-7.19121309 6.54418357 -4.49990645 4.33327097 -1 2 C-0.67 1.34 -0.34 0.68 0 0 Z " fill="#1E2D5D" transform="translate(257,234)"/>
<path d="M0 0 C2.16874252 0.50603992 3.99967627 0.99983813 6 2 C6 1.34 6 0.68 6 0 C6.99 0 7.98 0 9 0 C9 0.66 9 1.32 9 2 C9.66 2 10.32 2 11 2 C11 1.34 11 0.68 11 0 C11.66 0 12.32 0 13 0 C13.4640625 1.4540625 13.4640625 1.4540625 13.9375 2.9375 C14.69523342 5.84065792 14.69523342 5.84065792 16 7 C16.66 6.01 17.32 5.02 18 4 C20.08573846 4.22906954 22.16863641 4.48409892 24.25 4.75 C25.41015625 4.88921875 26.5703125 5.0284375 27.765625 5.171875 C31.40398769 6.10343646 32.74382908 7.04214913 35 10 C35.84213994 13.36855977 36.28441764 15.86232946 35.4375 19.25 C33.25919598 21.90184838 31.22055531 22.84546131 28 24 C23.8221972 23.92796892 21.77282886 23.65393211 18.5625 20.9375 C17.7890625 19.9784375 17.7890625 19.9784375 17 19 C16.01 21.31 15.02 23.62 14 26 C12.68 26 11.36 26 10 26 C9.67 23.69 9.34 21.38 9 19 C5.37 19 1.74 19 -2 19 C-2.33 20.32 -2.66 21.64 -3 23 C-3.66 23 -4.32 23 -5 23 C-4.55138351 19.94940789 -3.89882897 17.80979847 -2.4375 15.0625 C-0.86624174 11.71503674 -0.66820422 9.64975355 -1 6 C-1.33 5.34 -1.66 4.68 -2 4 C-1.0625 1.875 -1.0625 1.875 0 0 Z " fill="#518EB2" transform="translate(106,297)"/>
<path d="M0 0 C0.66 0 1.32 0 2 0 C2 44.88 2 89.76 2 136 C-44.86 135.67 -91.72 135.34 -140 135 C-140 134.67 -140 134.34 -140 134 C-93.8 134 -47.6 134 0 134 C0 89.78 0 45.56 0 0 Z " fill="#1E3C6B" transform="translate(320,147)"/>
<path d="M0 0 C0.70125 0.09023438 1.4025 0.18046875 2.125 0.2734375 C4 0.625 4 0.625 6 1.625 C5.67 3.275 5.34 4.925 5 6.625 C3.68 6.625 2.36 6.625 1 6.625 C1.03093173 9.04085574 1.03093173 9.04085574 2 11.625 C4.96707046 13.48416824 4.96707046 13.48416824 8 14.625 C8 15.285 8 15.945 8 16.625 C8.66 16.625 9.32 16.625 10 16.625 C10.17015625 16.068125 10.3403125 15.51125 10.515625 14.9375 C12.23315937 9.52909391 14.35342255 4.64437104 17 -0.375 C18.32 -0.375 19.64 -0.375 21 -0.375 C23.31 5.565 25.62 11.505 28 17.625 C27.01 17.625 26.02 17.625 25 17.625 C24.505 15.645 24.505 15.645 24 13.625 C20.37 13.625 16.74 13.625 13 13.625 C13 15.275 13 16.925 13 18.625 C8.41076487 18.75247875 8.41076487 18.75247875 6.1875 18.0625 C3.8431567 17.59363134 2.22987114 17.78980213 -0.125 18.125 C-4 18.625 -4 18.625 -6 17.625 C-6 16.965 -6 16.305 -6 15.625 C-6.99 15.295 -7.98 14.965 -9 14.625 C-10.59616743 11.43266515 -10.51466114 8.09038503 -10 4.625 C-7.01050604 0.73865785 -4.80880406 -0.65413879 0 0 Z " fill="#598CB3" transform="translate(205,302.375)"/>
<path d="M0 0 C12.05526992 -0.43573265 12.05526992 -0.43573265 16 3 C18.36086122 6.54129184 18.57269578 7.82750218 18 12 C16.17794457 14.92612619 14.13027505 17.43486248 11 19 C7.32984725 19.1377685 3.67388652 19.04271961 0 19 C0 12.73 0 6.46 0 0 Z " fill="#243F6E" transform="translate(362,302)"/>
<path d="M0 0 C0.72159424 1.64363134 1.39351421 3.31050386 2 5 C1 6 1 6 -1.06640625 6.09765625 C-1.89011719 6.08605469 -2.71382812 6.07445312 -3.5625 6.0625 C-4.38878906 6.05347656 -5.21507813 6.04445313 -6.06640625 6.03515625 C-6.70449219 6.02355469 -7.34257813 6.01195312 -8 6 C-8 7.32 -8 8.64 -8 10 C-3.545 11.98 -3.545 11.98 1 14 C1.3125 16.3125 1.3125 16.3125 1 19 C-0.875 20.875 -0.875 20.875 -4 22 C-7.38251675 21.94319438 -10.66275568 21.53784714 -14 21 C-14 20.34 -14 19.68 -14 19 C-14.66 18.67 -15.32 18.34 -16 18 C-15.505 16.515 -15.505 16.515 -15 15 C-15.33 14.67 -15.66 14.34 -16 14 C-16.203125 12.0390625 -16.203125 12.0390625 -16.25 9.625 C-16.27578125 8.83351563 -16.3015625 8.04203125 -16.328125 7.2265625 C-16 5 -16 5 -14.83203125 3.3203125 C-12.46082804 1.61142831 -10.26091873 0.98687093 -7.4375 0.25 C-6.46683594 -0.01296875 -5.49617188 -0.2759375 -4.49609375 -0.546875 C-2 -1 -2 -1 0 0 Z " fill="#4D8CAF" transform="translate(96,299)"/>
<path d="M0 0 C0.66 0 1.32 0 2 0 C2 0.99 2 1.98 2 3 C2.66 2.67 3.32 2.34 4 2 C4 2.66 4 3.32 4 4 C6.64 4 9.28 4 12 4 C12 4.33 12 4.66 12 5 C10.35 5 8.7 5 7 5 C7 5.99 7 6.98 7 8 C8.65 8 10.3 8 12 8 C12 8.66 12 9.32 12 10 C10.35 10 8.7 10 7 10 C7 10.99 7 11.98 7 13 C8.65 13 10.3 13 12 13 C12 13.33 12 13.66 12 14 C4.375 15 4.375 15 1 15 C0.67 14.67 0.34 14.34 0 14 C-1.7015625 14.0309375 -1.7015625 14.0309375 -3.4375 14.0625 C-7 14 -7 14 -9 12 C-9.99 12.33 -10.98 12.66 -12 13 C-12 12.01 -12 11.02 -12 10 C-12.66 10 -13.32 10 -14 10 C-14 9.34 -14 8.68 -14 8 C-13.34 8 -12.68 8 -12 8 C-12.350625 7.401875 -12.70125 6.80375 -13.0625 6.1875 C-14 4 -14 4 -13 1 C-12.34 1 -11.68 1 -11 1 C-11 1.99 -11 2.98 -11 4 C-10.34 3.67 -9.68 3.34 -9 3 C-9 3.99 -9 4.98 -9 6 C-8.731875 5.360625 -8.46375 4.72125 -8.1875 4.0625 C-7 2 -7 2 -4 1 C-4 1.66 -4 2.32 -4 3 C-2.68 2.67 -1.36 2.34 0 2 C0 1.34 0 0.68 0 0 Z " fill="#5690B6" transform="translate(175,336)"/>
<path d="M0 0 C0.99 0 1.98 0 3 0 C4.60546875 2.1171875 4.60546875 2.1171875 6.1875 4.875 C6.71730469 5.77992188 7.24710937 6.68484375 7.79296875 7.6171875 C9 10 9 10 9 12 C9.66 12 10.32 12 11 12 C11.2475 11.319375 11.495 10.63875 11.75 9.9375 C13.24197908 6.43134917 15.06835511 3.28379632 17 0 C17.99 0 18.98 0 20 0 C20 6.27 20 12.54 20 19 C19.01 19 18.02 19 17 19 C16.67 15.37 16.34 11.74 16 8 C15.21625 9.32 14.4325 10.64 13.625 12 C12.2890625 14.25 12.2890625 14.25 11 16 C10.34 16 9.68 16 9 16 C7.12422691 13.45349592 5.61674188 10.72293369 4 8 C3.67 11.63 3.34 15.26 3 19 C2.01 19 1.02 19 0 19 C0 12.73 0 6.46 0 0 Z " fill="#213F6F" transform="translate(293,302)"/>
<path d="M0 0 C1 1 1 1 1.09765625 3.06640625 C1.08605469 3.89011719 1.07445312 4.71382813 1.0625 5.5625 C1.05347656 6.38878906 1.04445312 7.21507812 1.03515625 8.06640625 C1.02355469 8.70449219 1.01195312 9.34257812 1 10 C-0.98 9.01 -2.96 8.02 -5 7 C-5 7.99 -5 8.98 -5 10 C-7.97 9.505 -7.97 9.505 -11 9 C-10.67 8.34 -10.34 7.68 -10 7 C-10.66 7 -11.32 7 -12 7 C-12 7.99 -12 8.98 -12 10 C-13.65 10 -15.3 10 -17 10 C-17 7.36 -17 4.72 -17 2 C-17.99 2 -18.98 2 -20 2 C-20 1.34 -20 0.68 -20 0 C-13.22296996 -0.93724883 -6.76669822 -1.23030877 0 0 Z " fill="#5B90B7" transform="translate(227,340)"/>
<path d="M0 0 C2.0625 1.5625 2.0625 1.5625 3 4 C2.67272727 10.32727273 2.67272727 10.32727273 0 13 C-7.16065574 13.68196721 -7.16065574 13.68196721 -10 11.375 C-11.2766188 8.34303035 -11.41616519 6.25996064 -11 3 C-8.78821658 -1.1470939 -4.14616112 -0.75854923 0 0 Z " fill="#508FB2" transform="translate(136,305)"/>
<path d="M0 0 C0.99 0 1.98 0 3 0 C5.26171875 2.40625 5.26171875 2.40625 7.6875 5.5 C8.49574219 6.5209375 9.30398438 7.541875 10.13671875 8.59375 C10.75160156 9.3878125 11.36648438 10.181875 12 11 C12.33 7.37 12.66 3.74 13 0 C13.99 0 14.98 0 16 0 C16 5.94 16 11.88 16 18 C11.11852312 16.77963078 10.53741888 15.47925737 7.75 11.4375 C7.04359375 10.42558594 6.3371875 9.41367187 5.609375 8.37109375 C5.07828125 7.58863281 4.5471875 6.80617188 4 6 C3.67 10.29 3.34 14.58 3 19 C2.01 19 1.02 19 0 19 C0 12.73 0 6.46 0 0 Z " fill="#264171" transform="translate(339,302)"/>
<path d="M0 0 C1.32 0 2.64 0 4 0 C6.31 5.94 8.62 11.88 11 18 C10.01 18 9.02 18 8 18 C7.67 16.68 7.34 15.36 7 14 C3.37 14 -0.26 14 -4 14 C-4.33 15.32 -4.66 16.64 -5 18 C-5.66 18 -6.32 18 -7 18 C-6.35534798 13.66695924 -4.81074878 10.13327935 -2.9375 6.1875 C-2.11572266 4.44533203 -2.11572266 4.44533203 -1.27734375 2.66796875 C-0.85582031 1.78753906 -0.43429688 0.90710938 0 0 Z " fill="#193A67" transform="translate(222,302)"/>
<path d="M0 0 C0.99 0 1.98 0 3 0 C9.51936219 12.48519362 9.51936219 12.48519362 11 19 C10.01 18.67 9.02 18.34 8 18 C7.67 16.68 7.34 15.36 7 14 C3.37 14 -0.26 14 -4 14 C-4.33 15.32 -4.66 16.64 -5 18 C-5.66 18 -6.32 18 -7 18 C-6.35534798 13.66695924 -4.81074878 10.13327935 -2.9375 6.1875 C-2.11572266 4.44533203 -2.11572266 4.44533203 -1.27734375 2.66796875 C-0.85582031 1.78753906 -0.43429688 0.90710938 0 0 Z " fill="#193C69" transform="translate(108,302)"/>
<path d="M0 0 C1.423125 -0.061875 2.84625 -0.12375 4.3125 -0.1875 C5.51326172 -0.23970703 5.51326172 -0.23970703 6.73828125 -0.29296875 C9 0 9 0 10.765625 1.29296875 C12.8384379 4.15948532 12.4248241 6.60140717 12 10 C10.5 11.9375 10.5 11.9375 8 13 C5.27940731 13.22844671 2.7408346 13.13704173 0 13 C0 8.71 0 4.42 0 0 Z " fill="#7193C1" transform="translate(365,305)"/>
<path d="M0 0 C4.29 0 8.58 0 13 0 C13 0.99 13 1.98 13 3 C9.7 3 6.4 3 3 3 C3 4.65 3 6.3 3 8 C5.97 8 8.94 8 12 8 C12 8.66 12 9.32 12 10 C9.03 10 6.06 10 3 10 C3 11.98 3 13.96 3 16 C6.63 16 10.26 16 14 16 C14 16.99 14 17.98 14 19 C9.38 19 4.76 19 0 19 C0 12.73 0 6.46 0 0 Z " fill="#294173" transform="translate(320,302)"/>
<path d="M0 0 C5.29637669 -0.34730339 5.29637669 -0.34730339 8 0 C10.40072446 2.24583901 10.95753518 3.87260553 12 7 C12.33 7 12.66 7 13 7 C13 8.98 13 10.96 13 13 C13.99 13 14.98 13 16 13 C16 14.32 16 15.64 16 17 C14 17 12 17 10 17 C10 15.68 10 14.36 10 13 C6.7 13 3.4 13 0 13 C0 11.35 0 9.7 0 8 C2.97 8 5.94 8 9 8 C9 7.01 9 6.02 9 5 C6.03 5 3.06 5 0 5 C0 3.35 0 1.7 0 0 Z " fill="#7494C5" transform="translate(389,305)"/>
<path d="M0 0 C3.05543992 0.93090973 4.38009871 1.92962244 6.08984375 4.63671875 C6.93198369 8.00527852 7.37426139 10.49904821 6.52734375 13.88671875 C4.34903973 16.53856713 2.31039906 17.48218006 -0.91015625 18.63671875 C-5.61430342 18.71924765 -7.3478107 18.12877111 -10.91015625 15.01171875 C-12.91015625 11.63671875 -12.91015625 11.63671875 -13.03515625 8.07421875 C-10.68958178 0.90718564 -7.2241162 -1.31019745 0 0 Z M-8.91015625 3.76171875 C-10.39564716 6.54701421 -10.29066338 8.52924386 -9.91015625 11.63671875 C-9.07682292 14.13671875 -9.07682292 14.13671875 -6.91015625 15.63671875 C-4.13451922 16.20341131 -1.68644856 16.19659475 1.08984375 15.63671875 C3.34447624 14.21389235 3.34447624 14.21389235 4.08984375 11.63671875 C3.90526017 6.58564684 3.90526017 6.58564684 1.08984375 2.63671875 C-4.13563411 2.10971211 -4.13563411 2.10971211 -8.91015625 3.76171875 Z " fill="#193B68" transform="translate(134.91015625,302.36328125)"/>
<path d="M0 0 C9.24 0 18.48 0 28 0 C26 2 26 2 23.78515625 2.21118164 C22.88667969 2.19434326 21.98820312 2.17750488 21.0625 2.16015625 C20.08539063 2.14919922 19.10828125 2.13824219 18.1015625 2.12695312 C17.07804687 2.10568359 16.05453125 2.08441406 15 2.0625 C12.97923684 2.02814194 10.95839652 1.99798411 8.9375 1.97265625 C8.03902344 1.95468994 7.14054688 1.93672363 6.21484375 1.91821289 C3.95797028 1.84855521 3.95797028 1.84855521 2 3 C2 13.56 2 24.12 2 35 C8.88022836 33.08816696 8.88022836 33.08816696 14 29 C14.33 28.34 14.66 27.68 15 27 C15.99 27.33 16.98 27.66 18 28 C14.45727164 32.47238048 11.14585901 36.3198651 6 39 C4.02 39 2.04 39 0 39 C0 26.13 0 13.26 0 0 Z " fill="#172F5E" transform="translate(236,157)"/>
<path d="M0 0 C1.32 0.33 2.64 0.66 4 1 C3.67 8.26 3.34 15.52 3 23 C1.02 22.67 -0.96 22.34 -3 22 C-3 16.06 -3 10.12 -3 4 C-1.68 3.34 -0.36 2.68 1 2 C0.67 1.34 0.34 0.68 0 0 Z " fill="#6F96C2" transform="translate(359,299)"/>
<path d="M0 0 C1.8871875 0.0309375 1.8871875 0.0309375 3.8125 0.0625 C3.83715881 4.03180989 3.85534023 8.00109034 3.86743164 11.97045898 C3.87247057 13.32170386 3.87930177 14.67294326 3.88793945 16.02416992 C3.90002419 17.96270434 3.90519828 19.901278 3.91015625 21.83984375 C3.91539307 23.00765381 3.92062988 24.17546387 3.92602539 25.37866211 C3.8125 28.0625 3.8125 28.0625 2.8125 29.0625 C1.29321962 29.13429964 -0.22917482 29.14642007 -1.75 29.125 C-2.57628906 29.11597656 -3.40257812 29.10695312 -4.25390625 29.09765625 C-5.21103516 29.08025391 -5.21103516 29.08025391 -6.1875 29.0625 C-6.1875 28.4025 -6.1875 27.7425 -6.1875 27.0625 C-3.8775 27.0625 -1.5675 27.0625 0.8125 27.0625 C0.4825 18.8125 0.1525 10.5625 -0.1875 2.0625 C-2.1675 2.3925 -4.1475 2.7225 -6.1875 3.0625 C-6.5175 2.4025 -6.8475 1.7425 -7.1875 1.0625 C-4.43671116 0.14557039 -2.82801087 -0.04636083 0 0 Z " fill="#52AAD4" transform="translate(310.1875,195.9375)"/>
<path d="M0 0 C1.60488281 -0.02126953 1.60488281 -0.02126953 3.2421875 -0.04296875 C6.125 0.1875 6.125 0.1875 9.125 2.1875 C8.52171875 2.22488281 7.9184375 2.26226562 7.296875 2.30078125 C6.49765625 2.36652344 5.6984375 2.43226563 4.875 2.5 C3.69164062 2.58701172 3.69164062 2.58701172 2.484375 2.67578125 C-0.45265772 3.31278669 -1.83808036 3.95570422 -3.875 6.1875 C-4.32350006 9.37931011 -4.32350006 9.37931011 -4.0625 12.9375 C-3.91434591 17.8725638 -3.95273522 22.34560989 -4.875 27.1875 C-1.82586772 28.19861093 -1.82586772 28.19861093 1.125 27.1875 C3.4650417 27.46991883 5.80004723 27.80000787 8.125 28.1875 C8.125 28.8475 8.125 29.5075 8.125 30.1875 C3.175 30.1875 -1.775 30.1875 -6.875 30.1875 C-6.89791394 26.07572073 -6.91783951 21.96410342 -6.92993164 17.85229492 C-6.9349708 16.45254772 -6.94180216 15.0528058 -6.95043945 13.65307617 C-6.9625232 11.64504223 -6.96769807 9.63697043 -6.97265625 7.62890625 C-6.97789307 6.41920166 -6.98312988 5.20949707 -6.98852539 3.96313477 C-6.78548479 -1.00109886 -4.41340768 0.02645928 0 0 Z " fill="#449FC8" transform="translate(192.875,203.8125)"/>
<path d="M0 0 C0.33 1.32 0.66 2.64 1 4 C-1.64 3.67 -4.28 3.34 -7 3 C-7 4.32 -7 5.64 -7 7 C-6.15115234 7.30744141 -6.15115234 7.30744141 -5.28515625 7.62109375 C-4.55167969 7.89050781 -3.81820312 8.15992188 -3.0625 8.4375 C-2.33160156 8.70433594 -1.60070312 8.97117187 -0.84765625 9.24609375 C1 10 1 10 2 11 C2.28792759 13.73531209 2.34443368 15.41243666 0.9375 17.8125 C-2.03391293 19.63368857 -4.59321009 19.24334214 -8 19 C-8.99 18.67 -9.98 18.34 -11 18 C-11 17.01 -11 16.02 -11 15 C-7.7 15 -4.4 15 -1 15 C-1.636397 11.9163615 -1.636397 11.9163615 -3.8125 11.0859375 C-4.534375 10.85132813 -5.25625 10.61671875 -6 10.375 C-9.93048128 9.06951872 -9.93048128 9.06951872 -11 8 C-11.04080783 6.00041636 -11.04254356 3.99954746 -11 2 C-7.36576791 -0.32590854 -4.22911669 -0.16265833 0 0 Z " fill="#1F406E" transform="translate(248,302)"/>
<path d="M0 0 C0.66 0 1.32 0 2 0 C2.33 5.28 2.66 10.56 3 16 C7.455 15.505 7.455 15.505 12 15 C12 10.05 12 5.1 12 0 C12.99 0 13.98 0 15 0 C15.77732617 12.76542314 15.77732617 12.76542314 12.875 17.375 C9.48771221 19.28955397 7.82336376 19.73213349 4 19 C1.83203125 17.44921875 1.83203125 17.44921875 0 15 C-0.2911521 12.26317029 -0.38322418 9.96059961 -0.25 7.25 C-0.23195312 6.55261719 -0.21390625 5.85523438 -0.1953125 5.13671875 C-0.14838554 3.42388461 -0.07664605 1.71176176 0 0 Z " fill="#1D436F" transform="translate(174,302)"/>
<path d="M0 0 C0.66 0.33 1.32 0.66 2 1 C2 1.66 2 2.32 2 3 C-0.64 3 -3.28 3 -6 3 C-6 4.32 -6 5.64 -6 7 C-1.545 8.98 -1.545 8.98 3 11 C3.3125 13.3125 3.3125 13.3125 3 16 C0.69963256 18.15659447 -0.92579763 19.02184145 -4.11328125 18.95703125 C-6.08651905 18.71519571 -8.04567419 18.36436583 -10 18 C-10.33 17.01 -10.66 16.02 -11 15 C-7.37 15.33 -3.74 15.66 0 16 C0 14.68 0 13.36 0 12 C-0.63808594 11.79503906 -1.27617188 11.59007812 -1.93359375 11.37890625 C-2.75988281 11.10949219 -3.58617188 10.84007812 -4.4375 10.5625 C-5.26121094 10.29566406 -6.08492188 10.02882813 -6.93359375 9.75390625 C-9 9 -9 9 -10 8 C-10.3125 5.625 -10.3125 5.625 -10 3 C-7.01145346 -0.33337883 -4.31526669 -0.37524058 0 0 Z " fill="#193E6A" transform="translate(94,302)"/>
<path d="M0 0 C0.35191406 0.92039062 0.35191406 0.92039062 0.7109375 1.859375 C2.3390582 4.5630421 3.72633836 5.09053534 6.625 6.25 C7.85089844 6.75273437 7.85089844 6.75273437 9.1015625 7.265625 C9.72804687 7.50796875 10.35453125 7.7503125 11 8 C11 9.32 11 10.64 11 12 C3.25 12.125 3.25 12.125 1 11 C0.34 12.65 -0.32 14.3 -1 16 C-2.65 15.67 -4.3 15.34 -6 15 C-5.34 14.34 -4.68 13.68 -4 13 C-4.3185177 10.89179203 -4.3185177 10.89179203 -5 9 C-3.68 8.67 -2.36 8.34 -1 8 C-1.66 7.67 -2.32 7.34 -3 7 C-2.34 6.34 -1.68 5.68 -1 5 C-0.35232207 2.42938689 -0.35232207 2.42938689 0 0 Z " fill="#5989B2" transform="translate(236,306)"/>
<path d="M0 0 C0.70125 0.09023438 1.4025 0.18046875 2.125 0.2734375 C4 0.625 4 0.625 6 1.625 C6 2.285 6 2.945 6 3.625 C2.37 3.295 -1.26 2.965 -5 2.625 C-5 3.285 -5 3.945 -5 4.625 C-5.66 4.625 -6.32 4.625 -7 4.625 C-6.855625 5.883125 -6.71125 7.14125 -6.5625 8.4375 C-6.48128906 9.14519531 -6.40007812 9.85289062 -6.31640625 10.58203125 C-6.02829265 12.81896393 -6.02829265 12.81896393 -5 15.625 C-1.7 15.295 1.6 14.965 5 14.625 C4.67 15.615 4.34 16.605 4 17.625 C-3.75 18.75 -3.75 18.75 -6 17.625 C-6 16.965 -6 16.305 -6 15.625 C-6.99 15.295 -7.98 14.965 -9 14.625 C-10.59616743 11.43266515 -10.51466114 8.09038503 -10 4.625 C-7.01050604 0.73865785 -4.80880406 -0.65413879 0 0 Z " fill="#1C3F6C" transform="translate(205,302.375)"/>
<path d="M0 0 C3.96 0 7.92 0 12 0 C12 0.33 12 0.66 12 1 C8.7 1 5.4 1 2 1 C2 2.98 2 4.96 2 7 C5.3 7 8.6 7 12 7 C12 7.99 12 8.98 12 10 C9.03 10 6.06 10 3 10 C3 11.65 3 13.3 3 15 C6.3 15 9.6 15 13 15 C13 15.66 13 16.32 13 17 C8.71 17 4.42 17 0 17 C0 11.39 0 5.78 0 0 Z " fill="#223D6E" transform="translate(386,303)"/>
<path d="M0 0 C2.48662146 3.72993219 1.79466113 4.76180733 1 9 C1.33 9.99 1.66 10.98 2 12 C0.68 12 -0.64 12 -2 12 C-2.33 11.34 -2.66 10.68 -3 10 C-3.99 10.66 -4.98 11.32 -6 12 C-6.36416047 14.43693311 -6.36416047 14.43693311 -6.1875 17.125 C-6.16042969 18.03507812 -6.13335937 18.94515625 -6.10546875 19.8828125 C-6.07066406 20.58148438 -6.03585938 21.28015625 -6 22 C-8.31 22.33 -10.62 22.66 -13 23 C-10.56866704 13.97847509 -5.97042421 7.11858271 0 0 Z " fill="#264F7E" transform="translate(254,218)"/>
<path d="M0 0 C1.1446875 0.3403125 1.1446875 0.3403125 2.3125 0.6875 C2.3125 1.0175 2.3125 1.3475 2.3125 1.6875 C0.6625 1.6875 -0.9875 1.6875 -2.6875 1.6875 C-2.31625 2.615625 -1.945 3.54375 -1.5625 4.5 C-1.27375 5.551875 -0.985 6.60375 -0.6875 7.6875 C-1.6775 9.1725 -1.6775 9.1725 -2.6875 10.6875 C-3.3475 10.6875 -4.0075 10.6875 -4.6875 10.6875 C-4.6875 12.3375 -4.6875 13.9875 -4.6875 15.6875 C-2.3443787 15.43188677 -0.00906597 15.09479228 2.3125 14.6875 C2.6425 14.0275 2.9725 13.3675 3.3125 12.6875 C3.9725 12.6875 4.6325 12.6875 5.3125 12.6875 C5.3125 11.6975 5.3125 10.7075 5.3125 9.6875 C5.9725 9.6875 6.6325 9.6875 7.3125 9.6875 C7.291875 10.450625 7.27125 11.21375 7.25 12 C7.18307159 14.78935786 7.18307159 14.78935786 8.3125 17.6875 C6.39950862 17.96422202 4.48172064 18.20792815 2.5625 18.4375 C1.49515625 18.57671875 0.4278125 18.7159375 -0.671875 18.859375 C-3.6875 18.6875 -3.6875 18.6875 -6.0859375 16.828125 C-7.6875 14.6875 -7.6875 14.6875 -7.5625 12.6875 C-6.6875 10.6875 -6.6875 10.6875 -5.5625 8.6875 C-4.44895407 6.71208697 -4.44895407 6.71208697 -5.25 4.625 C-5.6875 2.6875 -5.6875 2.6875 -4.5625 0.875 C-2.6875 -0.3125 -2.6875 -0.3125 0 0 Z " fill="#264372" transform="translate(270.6875,302.3125)"/>
<path d="M0 0 C2.16874252 0.50603992 3.99967627 0.99983813 6 2 C6 1.34 6 0.68 6 0 C6.99 0 7.98 0 9 0 C9 0.66 9 1.32 9 2 C9.66 2 10.32 2 11 2 C11 1.34 11 0.68 11 0 C11.66 0 12.32 0 13 0 C14 3 14 3 13 6 C12.34 6 11.68 6 11 6 C11 6.66 11 7.32 11 8 C10.34 8 9.68 8 9 8 C8.67 8.99 8.34 9.98 8 11 C5 7.25 5 7.25 5 5 C4.01 5 3.02 5 2 5 C1.67 6.65 1.34 8.3 1 10 C0.34 9.67 -0.32 9.34 -1 9 C-1.94934202 6.07286212 -2.23176473 4.57168632 -1.0625 1.6875 C-0.711875 1.130625 -0.36125 0.57375 0 0 Z " fill="#528EB3" transform="translate(106,297)"/>
<path d="M0 0 C3.375 -0.125 3.375 -0.125 7 0 C7.66 0.66 8.32 1.32 9 2 C11.58354218 2.16687448 11.58354218 2.16687448 14 2 C14.66 3.32 15.32 4.64 16 6 C15.01 6.495 15.01 6.495 14 7 C14 6.01 14 5.02 14 4 C9.38 4 4.76 4 0 4 C0 7.96 0 11.92 0 16 C-0.99 15.67 -1.98 15.34 -3 15 C-3 15.66 -3 16.32 -3 17 C-3.66 17 -4.32 17 -5 17 C-5.08096803 15.54257537 -5.13917774 14.08387193 -5.1875 12.625 C-5.22230469 11.81289063 -5.25710938 11.00078125 -5.29296875 10.1640625 C-5.19628906 9.44992187 -5.09960938 8.73578125 -5 8 C-4.01 7.34 -3.02 6.68 -2 6 C-0.78715124 2.94570927 -0.78715124 2.94570927 0 0 Z " fill="#7495C5" transform="translate(385,298)"/>
<path d="M0 0 C-0.165 0.7425 -0.33 1.485 -0.5 2.25 C-1.08256172 5.45408946 -1.49257857 8.01484286 0 11 C-0.99 12.485 -0.99 12.485 -2 14 C-5.625 14.1875 -5.625 14.1875 -9 14 C-9 12.35 -9 10.7 -9 9 C-8.34 9 -7.68 9 -7 9 C-5.89155081 5.67465243 -6.15545644 3.37817425 -7 0 C-2.25 -1.125 -2.25 -1.125 0 0 Z " fill="#20416E" transform="translate(275,304)"/>
<path d="M0 0 C0.99 0 1.98 0 3 0 C3 5.28 3 10.56 3 16 C6.3 16 9.6 16 13 16 C13 16.99 13 17.98 13 19 C8.71 19 4.42 19 0 19 C0 12.73 0 6.46 0 0 Z " fill="#1F4772" transform="translate(156,302)"/>
<path d="M0 0 C0.99 0 1.98 0 3 0 C3 5.28 3 10.56 3 16 C5.97 16 8.94 16 12 16 C12.33 16.99 12.66 17.98 13 19 C8.71 19 4.42 19 0 19 C0 12.73 0 6.46 0 0 Z " fill="#243B6B" transform="translate(405,302)"/>
<path d="M0 0 C3.375 0.3125 3.375 0.3125 7 1 C9 4 9 4 8.6875 6.625 C8 9 8 9 7 10 C4.125 10.3125 4.125 10.3125 1 10 C-1 8.375 -1 8.375 -2 6 C-1.1875 2.75 -1.1875 2.75 0 0 Z " fill="#2A4E7C" transform="translate(325,340)"/>
<path d="M0 0 C2.5625 0.3125 2.5625 0.3125 4.4375 1.5 C5.5625 3.3125 5.5625 3.3125 5.3125 5.875 C4.5625 8.3125 4.5625 8.3125 3.5625 10.3125 C1.2525 10.3125 -1.0575 10.3125 -3.4375 10.3125 C-4.81875018 7.54999964 -4.62829306 5.36518901 -4.4375 2.3125 C-2.4375 0.3125 -2.4375 0.3125 0 0 Z " fill="#214E78" transform="translate(238.4375,339.6875)"/>
<path d="M0 0 C5.625 -0.25 5.625 -0.25 9 2 C9.375 5 9.375 5 9 8 C5.5647952 10.29013653 4.014669 10.17842973 0 10 C0 6.7 0 3.4 0 0 Z " fill="#183F6C" transform="translate(287,340)"/>
<path d="M0 0 C0.33 0.66 0.66 1.32 1 2 C1.99 1.67 2.98 1.34 4 1 C4.99 1.66 5.98 2.32 7 3 C7.2578125 5.27734375 7.2578125 5.27734375 7.125 7.9375 C6.9849221 11.10792988 6.98235576 12.94706727 8 16 C6.68 16.33 5.36 16.66 4 17 C3.34 15.35 2.68 13.7 2 12 C1.34 12 0.68 12 0 12 C0 8.04 0 4.08 0 0 Z M3 9 C3.66 9.66 4.32 10.32 5 11 C5 10.34 5 9.68 5 9 C4.34 9 3.68 9 3 9 Z " fill="#5B8EB5" transform="translate(189,302)"/>
<path d="M0 0 C0.33 0.66 0.66 1.32 1 2 C-0.42892578 2.16435547 -0.42892578 2.16435547 -1.88671875 2.33203125 C-3.76810547 2.56986328 -3.76810547 2.56986328 -5.6875 2.8125 C-7.54955078 3.03873047 -7.54955078 3.03873047 -9.44921875 3.26953125 C-12.98760389 3.79317823 -12.98760389 3.79317823 -15.65625 5.59375 C-18.43799281 7.26279569 -19.66243279 7.20467521 -22.8125 6.6875 C-23.60269531 6.56761719 -24.39289063 6.44773438 -25.20703125 6.32421875 C-25.79871094 6.21722656 -26.39039063 6.11023438 -27 6 C-20.48340087 -0.51659913 -8.6129716 -0.07745478 0 0 Z " fill="#4D9AC8" transform="translate(312,194)"/>
<path d="M0 0 C2.33294775 -0.04241723 4.66702567 -0.04092937 7 0 C8 1 8 1 8.09765625 3.06640625 C8.08605469 3.89011719 8.07445312 4.71382813 8.0625 5.5625 C8.05347656 6.38878906 8.04445312 7.21507812 8.03515625 8.06640625 C8.02355469 8.70449219 8.01195312 9.34257812 8 10 C6.02 9.01 4.04 8.02 2 7 C2 7.99 2 8.98 2 10 C1.34 10 0.68 10 0 10 C0 6.7 0 3.4 0 0 Z " fill="#234B77" transform="translate(220,340)"/>
<path d="M0 0 C0.66 0 1.32 0 2 0 C2 0.99 2 1.98 2 3 C2.66 2.67 3.32 2.34 4 2 C4 2.99 4 3.98 4 5 C4.66 4.34 5.32 3.68 6 3 C9.125 3.375 9.125 3.375 12 4 C12 4.33 12 4.66 12 5 C10.02 5 8.04 5 6 5 C6 6.65 6 8.3 6 10 C8.31 10.33 10.62 10.66 13 11 C12.67 11.66 12.34 12.32 12 13 C9.125 13.125 9.125 13.125 6 13 C5.34 12.34 4.68 11.68 4 11 C3.01 11.33 2.02 11.66 1 12 C1 11.01 1 10.02 1 9 C0.34 9 -0.32 9 -1 9 C-1 8.34 -1 7.68 -1 7 C-0.34 7 0.32 7 1 7 C0.649375 6.401875 0.29875 5.80375 -0.0625 5.1875 C-1 3 -1 3 0 0 Z " fill="#386E95" transform="translate(162,337)"/>
<path d="M0 0 C0.66 0 1.32 0 2 0 C3.625 2.5 3.625 2.5 5 5 C5.61875 4.175 6.2375 3.35 6.875 2.5 C7.57625 1.675 8.2775 0.85 9 0 C9.66 0 10.32 0 11 0 C11 3.3 11 6.6 11 10 C10.34 10 9.68 10 9 10 C8.67 8.68 8.34 7.36 8 6 C7.01 7.485 7.01 7.485 6 9 C5.34 9 4.68 9 4 9 C3.67 8.34 3.34 7.68 3 7 C2.67 7.99 2.34 8.98 2 10 C1.34 10 0.68 10 0 10 C0 6.7 0 3.4 0 0 Z " fill="#294E7C" transform="translate(257,340)"/>
<path d="M0 0 C0.33 1.32 0.66 2.64 1 4 C4.63 4 8.26 4 12 4 C12.66 6.31 13.32 8.62 14 11 C13.01 10.67 12.02 10.34 11 10 C10.67 8.68 10.34 7.36 10 6 C6.37 6 2.74 6 -1 6 C-1.33 7.32 -1.66 8.64 -2 10 C-2.66 10 -3.32 10 -4 10 C-3.43454163 6.04179141 -2.19097652 3.3340947 0 0 Z " fill="#123662" transform="translate(105,310)"/>
<path d="M0 0 C0.33 0.99 0.66 1.98 1 3 C5.455 2.505 5.455 2.505 10 2 C10 2.66 10 3.32 10 4 C10.66 4 11.32 4 12 4 C12.66 5.65 13.32 7.3 14 9 C13.01 9 12.02 9 11 9 C10.67 7.68 10.34 6.36 10 5 C6.37 5 2.74 5 -1 5 C-1.33 6.32 -1.66 7.64 -2 9 C-2.66 9 -3.32 9 -4 9 C-3.46930939 5.17902761 -2.50298434 2.93828597 0 0 Z " fill="#113260" transform="translate(219,311)"/>
<path d="M0 0 C2.64 0.33 5.28 0.66 8 1 C8 3.31 8 5.62 8 8 C5.03 7.01 2.06 6.02 -1 5 C-0.67 3.35 -0.34 1.7 0 0 Z " fill="#4E88AD" transform="translate(88,304)"/>
<path d="M0 0 C4 2 4 2 6 5 C6.33 3.35 6.66 1.7 7 0 C7.66 0 8.32 0 9 0 C9 3.3 9 6.6 9 10 C5.60085025 8.86695008 4.94745549 7.87481525 3 5 C2.67 6.65 2.34 8.3 2 10 C1.34 10 0.68 10 0 10 C0 6.7 0 3.4 0 0 Z " fill="#214C77" transform="translate(193,340)"/>
<path d="M0 0 C3.28788824 3.11016455 5.83735988 6.01618925 8 10 C7.34 10 6.68 10 6 10 C6 10.66 6 11.32 6 12 C5.38125 11.79375 4.7625 11.5875 4.125 11.375 C3.42375 11.25125 2.7225 11.1275 2 11 C1.34 11.66 0.68 12.32 0 13 C0 8.71 0 4.42 0 0 Z " fill="#6D8CBB" transform="translate(342,307)"/>
<path d="M0 0 C0.66 0.66 1.32 1.32 2 2 C1.53846154 8.46153846 1.53846154 8.46153846 -1 11 C-2.875 11.265625 -2.875 11.265625 -5 11.25 C-5.70125 11.25515625 -6.4025 11.2603125 -7.125 11.265625 C-9 11 -9 11 -11 9 C-10.625 6.875 -10.625 6.875 -10 5 C-10 5.66 -10 6.32 -10 7 C-8.68 6.34 -7.36 5.68 -6 5 C-6 5.66 -6 6.32 -6 7 C-5.34 7 -4.68 7 -4 7 C-4 7.66 -4 8.32 -4 9 C-3.01 9 -2.02 9 -1 9 C-0.67 6.03 -0.34 3.06 0 0 Z " fill="#5888B0" transform="translate(137,307)"/>
<path d="M0 0 C1 1 1 1 1.11352539 3.59204102 C1.10828857 4.71795654 1.10305176 5.84387207 1.09765625 7.00390625 C1.09443359 8.21884766 1.09121094 9.43378906 1.08789062 10.68554688 C1.07951172 11.96494141 1.07113281 13.24433594 1.0625 14.5625 C1.05798828 15.84576172 1.05347656 17.12902344 1.04882812 18.45117188 C1.03699545 21.63416022 1.02051068 24.81705762 1 28 C-1.64 28 -4.28 28 -7 28 C-7 27.67 -7 27.34 -7 27 C-4.69 27 -2.38 27 0 27 C-0.33 18.75 -0.66 10.5 -1 2 C-2.98 2.33 -4.96 2.66 -7 3 C-7.33 2.34 -7.66 1.68 -8 1 C-5.05549278 0.01849759 -3.06481021 -0.1613058 0 0 Z " fill="#45B7E3" transform="translate(311,196)"/>
<path d="M0 0 C2.97 0.99 5.94 1.98 9 3 C9 4.32 9 5.64 9 7 C6.36 7 3.72 7 1 7 C-0.0625 5.1875 -0.0625 5.1875 -1 3 C-0.67 2.01 -0.34 1.02 0 0 Z " fill="#618DB7" transform="translate(238,311)"/>
<path d="M0 0 C2.97 0 5.94 0 9 0 C8.67 1.32 8.34 2.64 8 4 C8.33 4.66 8.66 5.32 9 6 C6.03 6 3.06 6 0 6 C0 4.02 0 2.04 0 0 Z " fill="#6287B5" transform="translate(323,312)"/>
<path d="M0 0 C0 0.66 0 1.32 0 2 C-3 4 -3 4 -5.875 4.8125 C-9.55789431 6.21199984 -11.27856865 8.20695203 -14 11 C-16.3125 11.8125 -16.3125 11.8125 -18 12 C-16.50819618 8.16030039 -14.37986478 6.57720591 -11 4.3125 C-10.113125 3.71050781 -9.22625 3.10851562 -8.3125 2.48828125 C-4.94000161 0.31780509 -4.22866931 0 0 0 Z " fill="#33739D" transform="translate(276,204)"/>
<path d="M0 0 C0.66 0.66 1.32 1.32 2 2 C1.01 4.31 0.02 6.62 -1 9 C1.33075929 8.04134491 1.33075929 8.04134491 3 5 C2.67 6.65 2.34 8.3 2 10 C-0.3431213 9.74438677 -2.67843403 9.40729228 -5 9 C-6.35439668 6.29120665 -6.06501451 3.99066732 -6 1 C-3.525 1.495 -3.525 1.495 -1 2 C-0.67 1.34 -0.34 0.68 0 0 Z " fill="#4D86AB" transform="translate(102,311)"/>
<path d="M0 0 C0 0.66 0 1.32 0 2 C-1.2065625 2.13277344 -2.413125 2.26554688 -3.65625 2.40234375 C-5.27083664 2.58069925 -6.88541979 2.75908636 -8.5 2.9375 C-9.68722656 3.06801758 -9.68722656 3.06801758 -10.8984375 3.20117188 C-15.93815103 3.75884509 -20.97010066 4.35972612 -26 5 C-23.71949607 3.73305337 -21.89663488 2.98076928 -19.3125 2.5 C-18.1678125 2.2525 -18.1678125 2.2525 -17 2 C-16.67 1.34 -16.34 0.68 -16 0 C-15.34 0.33 -14.68 0.66 -14 1 C-11.99100513 0.72604615 -9.99110401 0.38290462 -8 0 C-2.22222222 -1.11111111 -2.22222222 -1.11111111 0 0 Z " fill="#4993C0" transform="translate(304,224)"/>
<path d="M0 0 C2.31 0 4.62 0 7 0 C7 0.66 7 1.32 7 2 C5.35 2 3.7 2 2 2 C2 2.66 2 3.32 2 4 C3.65 4 5.3 4 7 4 C7 4.66 7 5.32 7 6 C5.35 6 3.7 6 2 6 C2 6.99 2 7.98 2 9 C3.65 9 5.3 9 7 9 C7 9.33 7 9.66 7 10 C4.69 10 2.38 10 0 10 C0 6.7 0 3.4 0 0 Z " fill="#284E7B" transform="translate(274,340)"/>
<path d="M0 0 C0.66 -0.33 1.32 -0.66 2 -1 C2 -0.01 2 0.98 2 2 C2.66 1.01 3.32 0.02 4 -1 C4.66 -0.34 5.32 0.32 6 1 C5.34 1 4.68 1 4 1 C3.731875 1.763125 3.46375 2.52625 3.1875 3.3125 C2.05575888 5.87380884 1.08776599 7.19692938 -1 9 C-2 8 -2 8 -2.0625 4.9375 C-2.041875 3.968125 -2.02125 2.99875 -2 2 C-2.66 2.66 -3.32 3.32 -4 4 C-4 3.01 -4 2.02 -4 1 C-4.66 0.67 -5.32 0.34 -6 0 C-3.4791665 -1.26041675 -2.64903564 -0.66225891 0 0 Z " fill="#6C97C2" transform="translate(308,338)"/>
<path d="M0 0 C0.33 0 0.66 0 1 0 C1.04898438 1.04800781 1.09796875 2.09601563 1.1484375 3.17578125 C1.22348143 4.55471354 1.29902857 5.9336185 1.375 7.3125 C1.4059375 8.00279297 1.436875 8.69308594 1.46875 9.40429688 C1.68124919 13.06990789 1.91933861 14.87900792 4 18 C1 19 1 19 -2.1875 17.5625 C-3.115625 17.046875 -4.04375 16.53125 -5 16 C-4.34 14.02 -3.68 12.04 -3 10 C-2.34 10.66 -1.68 11.32 -1 12 C-0.67 8.04 -0.34 4.08 0 0 Z " fill="#4F80A9" transform="translate(173,302)"/>
<path d="M0 0 C8.58 0 17.16 0 26 0 C17.34635271 4.32682364 9.26528374 2.73276558 0 1 C0 0.67 0 0.34 0 0 Z " fill="#4797C0" transform="translate(190,203)"/>
<path d="M0 0 C0.66 0 1.32 0 2 0 C3.04005702 3.38018531 3.08004482 6.4780279 3 10 C0.69 10.33 -1.62 10.66 -4 11 C-3.52269162 9.5410574 -3.04308958 8.08286504 -2.5625 6.625 C-2.29566406 5.81289062 -2.02882812 5.00078125 -1.75390625 4.1640625 C-1 2 -1 2 0 0 Z " fill="#234071" transform="translate(245,230)"/>
<path d="M0 0 C0.66 0 1.32 0 2 0 C2 5.94 2 11.88 2 18 C0.68 17.67 -0.64 17.34 -2 17 C-1.505 15.515 -1.505 15.515 -1 14 C-0.77439324 11.60745424 -0.59151405 9.21071877 -0.4375 6.8125 C-0.35371094 5.54019531 -0.26992188 4.26789063 -0.18359375 2.95703125 C-0.12300781 1.98121094 -0.06242187 1.00539063 0 0 Z " fill="#193162" transform="translate(353,302)"/>
<path d="M0 0 C1.2065625 0.0309375 1.2065625 0.0309375 2.4375 0.0625 C3.0625 2.4375 3.0625 2.4375 3.4375 5.0625 C2.7775 5.7225 2.1175 6.3825 1.4375 7.0625 C-0.6875 6.6875 -0.6875 6.6875 -2.5625 6.0625 C-2.94468767 4.40635343 -3.27645102 2.73792976 -3.5625 1.0625 C-2.5625 0.0625 -2.5625 0.0625 0 0 Z " fill="#618DB8" transform="translate(238.5625,341.9375)"/>
<path d="M0 0 C2.31 0 4.62 0 7 0 C7 0.33 7 0.66 7 1 C5.35 1 3.7 1 2 1 C2 1.99 2 2.98 2 4 C3.65 4 5.3 4 7 4 C7 4.66 7 5.32 7 6 C5.35 6 3.7 6 2 6 C2 6.99 2 7.98 2 9 C3.65 9 5.3 9 7 9 C7 9.33 7 9.66 7 10 C4.69 10 2.38 10 0 10 C0 6.7 0 3.4 0 0 Z " fill="#204E78" transform="translate(180,340)"/>
<path d="M0 0 C2.24241153 2.21100521 4.26569441 4.35724862 6 7 C6 7.99 6 8.98 6 10 C4.35 10.33 2.7 10.66 1 11 C-0.20272819 8.59454362 -0.10071472 7.05003047 -0.0625 4.375 C-0.05347656 3.55773437 -0.04445313 2.74046875 -0.03515625 1.8984375 C-0.02355469 1.27195312 -0.01195312 0.64546875 0 0 Z " fill="#6E91BF" transform="translate(296,309)"/>
<path d="M0 0 C1.2065625 0.0309375 1.2065625 0.0309375 2.4375 0.0625 C2.81968767 1.71864657 3.15145102 3.38707024 3.4375 5.0625 C2.4375 6.0625 2.4375 6.0625 -0.125 6.125 C-1.3315625 6.0940625 -1.3315625 6.0940625 -2.5625 6.0625 C-2.94468767 4.40635343 -3.27645102 2.73792976 -3.5625 1.0625 C-2.5625 0.0625 -2.5625 0.0625 0 0 Z " fill="#7294C2" transform="translate(328.5625,341.9375)"/>
<path d="M0 0 C2 1 2 1 2.6328125 2.84765625 C2.79523438 3.57855469 2.95765625 4.30945313 3.125 5.0625 C3.29257813 5.79597656 3.46015625 6.52945312 3.6328125 7.28515625 C3.75398437 7.85105469 3.87515625 8.41695313 4 9 C1.69 9 -0.62 9 -3 9 C-2.01 6.03 -1.02 3.06 0 0 Z " fill="#6183B1" transform="translate(223,305)"/>
<path d="M0 0 C1.1446875 0.3403125 1.1446875 0.3403125 2.3125 0.6875 C2.3125 1.0175 2.3125 1.3475 2.3125 1.6875 C0.6625 1.6875 -0.9875 1.6875 -2.6875 1.6875 C-2.0275 3.6675 -1.3675 5.6475 -0.6875 7.6875 C-2.3375 9.3375 -3.9875 10.9875 -5.6875 12.6875 C-5.6875 9.6875 -5.6875 9.6875 -4.6875 6.6875 C-4.89375 6.0275 -5.1 5.3675 -5.3125 4.6875 C-5.6875 2.6875 -5.6875 2.6875 -4.5625 0.875 C-2.6875 -0.3125 -2.6875 -0.3125 0 0 Z " fill="#1A3A69" transform="translate(270.6875,302.3125)"/>
<path d="M0 0 C1.65 0 3.3 0 5 0 C5.33 1.65 5.66 3.3 6 5 C3 7 3 7 0 7 C0 4.69 0 2.38 0 0 Z " fill="#698DBA" transform="translate(289,342)"/>
<path d="M0 0 C0.66 0 1.32 0 2 0 C2.04898438 1.14339844 2.09796875 2.28679687 2.1484375 3.46484375 C2.22345189 4.95575473 2.29900028 6.44663892 2.375 7.9375 C2.42140625 9.06961914 2.42140625 9.06961914 2.46875 10.22460938 C2.5726315 12.15507395 2.77895614 14.07942081 3 16 C3.66 16.33 4.32 16.66 5 17 C1.125 16.125 1.125 16.125 0 15 C-0.07313567 12.46950598 -0.09247527 9.96695163 -0.0625 7.4375 C-0.05798828 6.72658203 -0.05347656 6.01566406 -0.04882812 5.28320312 C-0.03700864 3.52209987 -0.01907263 1.76103964 0 0 Z " fill="#143161" transform="translate(174,302)"/>
<path d="M0 0 C0.33 0 0.66 0 1 0 C1 3.3 1 6.6 1 10 C-0.32 10.33 -1.64 10.66 -3 11 C-4 9 -4 9 -3.1875 6.0625 C-2 3 -2 3 0 0 Z " fill="#6F8DBB" transform="translate(309,309)"/>
<path d="M0 0 C2.89932357 2.39509338 3.50168276 4.31245243 4 8 C1.69 8 -0.62 8 -3 8 C-1.125 1.125 -1.125 1.125 0 0 Z " fill="#5585AD" transform="translate(109,306)"/>
<path d="M0 0 C3.3 0 6.6 0 10 0 C10.33 0.99 10.66 1.98 11 3 C6.71 3 2.42 3 -2 3 C-1.34 2.67 -0.68 2.34 0 2 C0 1.34 0 0.68 0 0 Z " fill="#2F497B" transform="translate(407,318)"/>
<path d="M0 0 C0 0.66 0 1.32 0 2 C1.32 2.66 2.64 3.32 4 4 C3.67 4.66 3.34 5.32 3 6 C0.69 6 -1.62 6 -4 6 C-4 4.35 -4 2.7 -4 1 C-2 0 -2 0 0 0 Z " fill="#6588B4" transform="translate(270,312)"/>
<path d="M0 0 C2.02045442 0.60183749 4.02111039 1.27306096 6 2 C6.33 2.66 6.66 3.32 7 4 C6.0625 6.125 6.0625 6.125 5 8 C4.34 8 3.68 8 3 8 C3 7.34 3 6.68 3 6 C1.68 5.67 0.36 5.34 -1 5 C-0.67 3.35 -0.34 1.7 0 0 Z " fill="#6290BA" transform="translate(210,311)"/>
<path d="M0 0 C0.99 0.33 1.98 0.66 3 1 C3.99 1 4.98 1 6 1 C6 3.64 6 6.28 6 9 C1.2 5.67692308 1.2 5.67692308 0.1875 2.25 C0.125625 1.5075 0.06375 0.765 0 0 Z " fill="#7093C1" transform="translate(346,305)"/>
<path d="M0 0 C1.98 0 3.96 0 6 0 C5.34257812 0.51304687 4.68515625 1.02609375 4.0078125 1.5546875 C1.2819432 4.87452053 1.65431431 6.89666222 1.875 11.125 C1.98447376 13.41442956 2.04020514 15.70830723 2 18 C1.34 18.66 0.68 19.32 0 20 C0 13.4 0 6.8 0 0 Z " fill="#49B8E0" transform="translate(187,206)"/>
<path d="M0 0 C0.99 0.33 1.98 0.66 3 1 C-0.56922981 5.50583621 -3.85754022 9.31697751 -9 12 C-11.375 11.75 -11.375 11.75 -13 11 C-12.05125 10.7525 -11.1025 10.505 -10.125 10.25 C-6.51696768 8.80678707 -6.44829998 8.37936662 -5 5 C-3.37253306 3.29503463 -1.71108689 1.62102968 0 0 Z " fill="#243D6E" transform="translate(251,184)"/>
<path d="M0 0 C0 0.99 0 1.98 0 3 C-2.95664519 4.4783226 -5.74229737 4.06032783 -9 4 C-9 3.34 -9 2.68 -9 2 C-9.99 1.67 -10.98 1.34 -12 1 C-6.06 0.505 -6.06 0.505 0 0 Z " fill="#578FB6" transform="translate(169,320)"/>
<path d="M0 0 C2.64 0 5.28 0 8 0 C7.01 0.33 6.02 0.66 5 1 C5 3.97 5 6.94 5 10 C4.34 10 3.68 10 3 10 C3 7.36 3 4.72 3 2 C2.01 2 1.02 2 0 2 C0 1.34 0 0.68 0 0 Z " fill="#27507C" transform="translate(207,340)"/>
<path d="M0 0 C0.66 0 1.32 0 2 0 C4.29612756 9.41002278 4.29612756 9.41002278 4 14 C1.28294264 11.28294264 0.28300288 8.60462715 -1 5 C-0.6875 2.0625 -0.6875 2.0625 0 0 Z " fill="#5888B0" transform="translate(115,305)"/>
<path d="M0 0 C0.33 0 0.66 0 1 0 C1 3.63 1 7.26 1 11 C-0.32 11.33 -1.64 11.66 -3 12 C-2.69230293 10.18667846 -2.37870936 8.37435655 -2.0625 6.5625 C-1.80146484 5.04849609 -1.80146484 5.04849609 -1.53515625 3.50390625 C-1 1 -1 1 0 0 Z " fill="#608CB5" transform="translate(185,306)"/>
<path d="M0 0 C1.32 0 2.64 0 4 0 C3 2 3 2 1 5 C0.30686092 6.65583225 -0.36474424 8.32110979 -1 10 C-1.99 10 -2.98 10 -4 10 C-2.8905928 6.51329166 -1.73662334 3.22515763 0 0 Z " fill="#224673" transform="translate(222,302)"/>
<path d="M0 0 C0.99 0.66 1.98 1.32 3 2 C2.67 3.65 2.34 5.3 2 7 C1.01 7.33 0.02 7.66 -1 8 C-1.33 5.69 -1.66 3.38 -2 1 C-1.34 0.67 -0.68 0.34 0 0 Z " fill="#4B97B6" transform="translate(119,302)"/>
<path d="M0 0 C0.33 0.66 0.66 1.32 1 2 C4.3 2 7.6 2 11 2 C11 2.66 11 3.32 11 4 C7.04 4 3.08 4 -1 4 C-0.67 2.68 -0.34 1.36 0 0 Z " fill="#1B3C6A" transform="translate(158,316)"/>
<path d="M0 0 C1.98 0 3.96 0 6 0 C6.33 0.99 6.66 1.98 7 3 C2.545 3.495 2.545 3.495 -2 4 C-2.33 3.34 -2.66 2.68 -3 2 C-2.01 2 -1.02 2 0 2 C0 1.34 0 0.68 0 0 Z " fill="#508CB0" transform="translate(109,316)"/>
<path d="M0 0 C1.65 0 3.3 0 5 0 C3.02 0.99 3.02 0.99 1 2 C1 2.66 1 3.32 1 4 C2.32 4 3.64 4 5 4 C5 4.99 5 5.98 5 7 C3.02 6.34 1.04 5.68 -1 5 C-0.67 3.35 -0.34 1.7 0 0 Z " fill="#5A84AE" transform="translate(241,304)"/>
<path d="M0 0 C3.3 0 6.6 0 10 0 C10.33 0.99 10.66 1.98 11 3 C9.54257537 3.08096803 8.08387193 3.13917774 6.625 3.1875 C5.81289063 3.22230469 5.00078125 3.25710938 4.1640625 3.29296875 C3.44992187 3.19628906 2.73578125 3.09960938 2 3 C1.34 2.01 0.68 1.02 0 0 Z " fill="#2B4678" transform="translate(363,302)"/>
<path d="M0 0 C2.16874252 0.50603992 3.99967627 0.99983813 6 2 C6 1.34 6 0.68 6 0 C6.99 0 7.98 0 9 0 C9 1.98 9 3.96 9 6 C8.34 6 7.68 6 7 6 C7 5.34 7 4.68 7 4 C4.69 3.67 2.38 3.34 0 3 C0 2.01 0 1.02 0 0 Z " fill="#285F86" transform="translate(106,297)"/>
<path d="M0 0 C2.0625 0.4375 2.0625 0.4375 4 1 C4 2.32 4 3.64 4 5 C2.02 5.33 0.04 5.66 -2 6 C-1.125 1.125 -1.125 1.125 0 0 Z " fill="#5590B6" transform="translate(155,297)"/>
<path d="M0 0 C-0.66 1.65 -1.32 3.3 -2 5 C-2.33 4.34 -2.66 3.68 -3 3 C-4.65 3 -6.3 3 -8 3 C-8 2.01 -8 1.02 -8 0 C-4.71303767 -0.79953138 -3.28976808 -1.09658936 0 0 Z " fill="#5286AE" transform="translate(190,341)"/>
<path d="M0 0 C2.69082872 0.17635452 5.32851446 0.61835921 8 1 C8 1.66 8 2.32 8 3 C3.38 3 -1.24 3 -6 3 C-6 2.34 -6 1.68 -6 1 C-4.7934375 1.0309375 -4.7934375 1.0309375 -3.5625 1.0625 C-1.06645115 1.29633621 -1.06645115 1.29633621 0 0 Z " fill="#45AEDA" transform="translate(193,231)"/>
<path d="M0 0 C0.66 1.32 1.32 2.64 2 4 C1.01 4.33 0.02 4.66 -1 5 C-1.73323796 7.01508358 -1.73323796 7.01508358 -2 9 C-2.66 9 -3.32 9 -4 9 C-3.46930939 5.17902761 -2.50298434 2.93828597 0 0 Z " fill="#1A3666" transform="translate(219,311)"/>
<path d="M0 0 C0.66 0 1.32 0 2 0 C2.33 1.32 2.66 2.64 3 4 C6.3 4.33 9.6 4.66 13 5 C13 5.33 13 5.66 13 6 C8.71 6 4.42 6 0 6 C0 4.02 0 2.04 0 0 Z " fill="#192D60" transform="translate(320,314)"/>
<path d="M0 0 C4.29 0 8.58 0 13 0 C13 0.33 13 0.66 13 1 C9.7 1 6.4 1 3 1 C3 2.65 3 4.3 3 6 C2.01 5.67 1.02 5.34 0 5 C0 3.35 0 1.7 0 0 Z " fill="#324C7C" transform="translate(320,304)"/>
<path d="M0 0 C0.33 0.66 0.66 1.32 1 2 C1.66 2 2.32 2 3 2 C2.67 3.32 2.34 4.64 2 6 C1.34 6 0.68 6 0 6 C-0.33 6.66 -0.66 7.32 -1 8 C-2 3.25 -2 3.25 -2 1 C-1.34 0.67 -0.68 0.34 0 0 Z " fill="#7597C7" transform="translate(405,296)"/>
<path d="M0 0 C1.32 0.66 2.64 1.32 4 2 C2.58774074 2.67595315 1.16997095 3.34040059 -0.25 4 C-1.43335938 4.556875 -1.43335938 4.556875 -2.640625 5.125 C-5 6 -5 6 -9 6 C-9 5.34 -9 4.68 -9 4 C-7.6078125 3.566875 -7.6078125 3.566875 -6.1875 3.125 C-2.90208333 2.1125 -2.90208333 2.1125 0 0 Z " fill="#3B7FAC" transform="translate(225,224)"/>
<path d="M0 0 C5.75 -0.125 5.75 -0.125 8 1 C7.67 1.99 7.34 2.98 7 4 C7 3.34 7 2.68 7 2 C5.35 2 3.7 2 2 2 C2 3.98 2 5.96 2 8 C1.67 8 1.34 8 1 8 C0.67 5.36 0.34 2.72 0 0 Z " fill="#2D5581" transform="translate(287,340)"/>
<path d="M0 0 C0 0.66 0 1.32 0 2 C0.66 2.33 1.32 2.66 2 3 C0.71254964 3.38922918 -0.58019597 3.76098036 -1.875 4.125 C-2.95394531 4.43824219 -2.95394531 4.43824219 -4.0546875 4.7578125 C-4.69664063 4.83773438 -5.33859375 4.91765625 -6 5 C-6.66 4.34 -7.32 3.68 -8 3 C-4.93882432 0.37613513 -4.26826873 0 0 0 Z " fill="#1E4571" transform="translate(132,302)"/>
<path d="M0 0 C1.65 0.99 3.3 1.98 5 3 C4.34 4.32 3.68 5.64 3 7 C2.34 7 1.68 7 1 7 C0.67 4.69 0.34 2.38 0 0 Z " fill="#265684" transform="translate(240,208)"/>
<path d="M0 0 C2.31 0 4.62 0 7 0 C7 0.66 7 1.32 7 2 C5.68 1.67 4.36 1.34 3 1 C3.33 2.32 3.66 3.64 4 5 C2.68 5 1.36 5 0 5 C0 3.35 0 1.7 0 0 Z " fill="#6C93BF" transform="translate(323,313)"/>
<path d="M0 0 C0.33 0.66 0.66 1.32 1 2 C-0.65 2.66 -2.3 3.32 -4 4 C-3.67 4.66 -3.34 5.32 -3 6 C-3.99 6.33 -4.98 6.66 -6 7 C-7.125 3.25 -7.125 3.25 -6 1 C-2.9375 0.375 -2.9375 0.375 0 0 Z " fill="#6488B6" transform="translate(318,341)"/>
<path d="M0 0 C0.66 0 1.32 0 2 0 C1.979375 0.763125 1.95875 1.52625 1.9375 2.3125 C1.87057159 5.10185786 1.87057159 5.10185786 3 8 C1.0625 7.1875 1.0625 7.1875 -1 6 C-1.33 5.01 -1.66 4.02 -2 3 C-1.34 3 -0.68 3 0 3 C0 2.01 0 1.02 0 0 Z " fill="#193966" transform="translate(276,312)"/>
<path d="M0 0 C1.65 0.33 3.3 0.66 5 1 C5.33 1.99 5.66 2.98 6 4 C3.36 4.33 0.72 4.66 -2 5 C-2.33 4.01 -2.66 3.02 -3 2 C-2.01 2 -1.02 2 0 2 C0 1.34 0 0.68 0 0 Z " fill="#608AB5" transform="translate(319,345)"/>
<path d="M0 0 C0.66 0.33 1.32 0.66 2 1 C1.67 1.99 1.34 2.98 1 4 C1.99 3.67 2.98 3.34 4 3 C4.33 3.66 4.66 4.32 5 5 C4.67 5.66 4.34 6.32 4 7 C1.525 6.01 1.525 6.01 -1 5 C-0.67 3.35 -0.34 1.7 0 0 Z " fill="#5687B0" transform="translate(168,342)"/>
<path d="M0 0 C0.33 0.99 0.66 1.98 1 3 C0.030625 3.12375 -0.93875 3.2475 -1.9375 3.375 C-2.948125 3.58125 -3.95875 3.7875 -5 4 C-5.33 4.66 -5.66 5.32 -6 6 C-5.625 3.5625 -5.625 3.5625 -5 1 C-3 0 -3 0 0 0 Z " fill="#578FB6" transform="translate(208,337)"/>
<path d="M0 0 C2.64 0 5.28 0 8 0 C7.67 0.99 7.34 1.98 7 3 C4.69 2.67 2.38 2.34 0 2 C0 1.34 0 0.68 0 0 Z " fill="#6E95C4" transform="translate(363,321)"/>
<path d="M0 0 C2 2 2 2 2.125 5.125 C2.08375 6.07375 2.0425 7.0225 2 8 C1.236875 7.21625 0.47375 6.4325 -0.3125 5.625 C-2.90891805 2.92742283 -2.90891805 2.92742283 -6 1 C-4.7934375 1.0309375 -4.7934375 1.0309375 -3.5625 1.0625 C-1.06645115 1.29633621 -1.06645115 1.29633621 0 0 Z " fill="#4D82A9" transform="translate(140,301)"/>
<path d="M0 0 C1.98 0.495 1.98 0.495 4 1 C3.34 3.31 2.68 5.62 2 8 C1.34 7.67 0.68 7.34 0 7 C-1.26229508 2.52459016 -1.26229508 2.52459016 0 0 Z " fill="#4882A8" transform="translate(105,299)"/>
<path d="M0 0 C2.05078125 0.03255208 4.1015625 0.06510417 6.15234375 0.09765625 C4.83234375 0.42765625 3.51234375 0.75765625 2.15234375 1.09765625 C1.82234375 2.41765625 1.49234375 3.73765625 1.15234375 5.09765625 C1.15234375 4.43765625 1.15234375 3.77765625 1.15234375 3.09765625 C-0.49765625 3.09765625 -2.14765625 3.09765625 -3.84765625 3.09765625 C-2.36122845 0.12480066 -2.36122845 0.12480066 0 0 Z " fill="#6F96C5" transform="translate(331.84765625,298.90234375)"/>
<path d="M0 0 C4.455 0.99 4.455 0.99 9 2 C9 2.33 9 2.66 9 3 C5.7 3 2.4 3 -1 3 C-0.67 2.01 -0.34 1.02 0 0 Z " fill="#538FB4" transform="translate(129,298)"/>
<path d="M0 0 C1.32 0 2.64 0 4 0 C3.34 1.98 2.68 3.96 2 6 C1.34 6 0.68 6 0 6 C-0.38218767 4.34385343 -0.71395102 2.67542976 -1 1 C-0.67 0.67 -0.34 0.34 0 0 Z " fill="#214875" transform="translate(249,200)"/>
<path d="M0 0 C1.65 1.32 3.3 2.64 5 4 C3.35 4.66 1.7 5.32 0 6 C-0.38218767 4.34385343 -0.71395102 2.67542976 -1 1 C-0.67 0.67 -0.34 0.34 0 0 Z " fill="#6B8DBB" transform="translate(326,342)"/>
<path d="M0 0 C1.65 0 3.3 0 5 0 C4.67 1.32 4.34 2.64 4 4 C2.68 4 1.36 4 0 4 C0 2.68 0 1.36 0 0 Z " fill="#5D83B0" transform="translate(222,342)"/>
<path d="M0 0 C0.75 1.6875 0.75 1.6875 1 4 C-0.9375 6.75 -0.9375 6.75 -3 9 C-3 4.72290301 -2.29379749 3.44069624 0 0 Z " fill="#223F6E" transform="translate(308,306)"/>
<path d="M0 0 C0.66 0.33 1.32 0.66 2 1 C0.625 3.5 0.625 3.5 -1 6 C-1.66 6 -2.32 6 -3 6 C-3.66 4.35 -4.32 2.7 -5 1 C-3.68 1 -2.36 1 -1 1 C-0.67 0.67 -0.34 0.34 0 0 Z " fill="#6A8BB9" transform="translate(305,308)"/>
<path d="M0 0 C1.32 0 2.64 0 4 0 C3.67 1.65 3.34 3.3 3 5 C2.01 4.67 1.02 4.34 0 4 C0 2.68 0 1.36 0 0 Z " fill="#6285B2" transform="translate(268,304)"/>
<path d="M0 0 C0.99 0 1.98 0 3 0 C2.25 1.9375 2.25 1.9375 1 4 C-1.125 4.75 -1.125 4.75 -3 5 C-1.125 1.125 -1.125 1.125 0 0 Z " fill="#2C618C" transform="translate(261,211)"/>
<path d="M0 0 C1.37562854 1.28965176 2.70766393 2.62689293 4 4 C4 4.66 4 5.32 4 6 C2.35 5.67 0.7 5.34 -1 5 C-0.67 3.35 -0.34 1.7 0 0 Z " fill="#6488B6" transform="translate(298,312)"/>
<path d="M0 0 C1.74627478 2.61941217 2.38722388 4.03824877 3 7 C2.01 6.67 1.02 6.34 0 6 C-0.3721042 4.67696283 -0.70630173 3.34262065 -1 2 C-1.66 1.67 -2.32 1.34 -3 1 C-2.01 0.67 -1.02 0.34 0 0 Z " fill="#1B3D6A" transform="translate(116,314)"/>
<path d="M0 0 C0.33 0 0.66 0 1 0 C1 2.64 1 5.28 1 8 C-0.32 8 -1.64 8 -3 8 C-3 7.01 -3 6.02 -3 5 C-2.01 5 -1.02 5 0 5 C0 3.35 0 1.7 0 0 Z " fill="#5394B6" transform="translate(182,308)"/>
<path d="M0 0 C0 0.66 0 1.32 0 2 C-2.64 2 -5.28 2 -8 2 C-8 1.34 -8 0.68 -8 0 C-2.25 -1.125 -2.25 -1.125 0 0 Z " fill="#49A1CE" transform="translate(304,224)"/>
</svg>
